<?xml version="1.0" standalone="no"?>
<!DOCTYPE svg PUBLIC "-//W3C//DTD SVG 20010904//EN"
 "http://www.w3.org/TR/2001/REC-SVG-20010904/DTD/svg10.dtd">
<svg version="1.0" xmlns="http://www.w3.org/2000/svg"
 width="260.000000pt" height="260.000000pt" viewBox="0 0 260.000000 260.000000"
 preserveAspectRatio="xMidYMid meet">
<metadata>
Created by potrace 1.11, written by Peter Selinger 2001-2013
</metadata>
<g transform="translate(0.000000,260.000000) scale(0.100000,-0.100000)"
fill="#000000" stroke="none">
<path d="M0 1300 l0 -1300 1300 0 1300 0 0 1300 0 1300 -1300 0 -1300 0 0
-1300z m1823 738 c-179 -299 -328 -551 -331 -560 -4 -16 6 -18 94 -19 55 -1
202 -4 327 -8 l229 -6 -73 -80 c-40 -44 -102 -112 -138 -151 -36 -38 -136
-146 -222 -240 -799 -868 -879 -954 -866 -929 3 6 23 48 45 95 44 95 119 250
275 573 58 119 109 226 112 237 6 19 1 20 -123 20 -71 0 -258 3 -417 7 l-287
6 68 67 c38 36 260 245 494 465 234 219 490 460 570 535 397 374 564 530 566
530 2 0 -144 -244 -323 -542z"/>
</g>
</svg>
